PathFileType	4	(X/Y/Z)	RBDS026static.trc
DataRate	CameraRate	NumFrames	NumMarkers	Units	OrigDataRate	OrigDataStartFrame	OrigNumFrames
150.000000	150.000000	4	48	mm	150.000000	112	150
Frame#	Time	L.Ankle			L.Ankle.Medial			L.ASIS			L.GTR			L.Heel.Bottom			L.Heel.Lateral			L.Heel.Top			L.HF			L.Iliac.Crest			L.Knee			L.Knee.Medial			L.MT1			L.MT2			L.MT5			L.PSIS			L.Shank.Bottom.Lateral			L.Shank.Bottom.Medial			L.Shank.Top.Lateral			L.Shank.Top.Medial			L.Thigh.Bottom.Lateral			L.Thigh.Bottom.Medial			L.Thigh.Top.Lateral			L.Thigh.Top.Medial			L.TT			R.Ankle			R.Ankle.Medial			R.ASIS			R.GTR			R.Heel.Bottom			R.Heel.Lateral			R.Heel.Top			R.HF			R.Iliac.Crest			R.Knee			R.Knee.Medial			R.MT1			R.MT2			R.MT5			R.PSIS			R.Shank.Bottom.Lateral			R.Shank.Bottom.Medial			R.Shank.Top.Lateral			R.Shank.Top.Medial			R.Thigh.Bottom.Lateral			R.Thigh.Bottom.Medial			R.Thigh.Top.Lateral			R.Thigh.Top.Medial			R.TT			
		X1	Y1	Z1	X2	Y2	Z2	X3	Y3	Z3	X4	Y4	Z4	X5	Y5	Z5	X6	Y6	Z6	X7	Y7	Z7	X8	Y8	Z8	X9	Y9	Z9	X10	Y10	Z10	X11	Y11	Z11	X12	Y12	Z12	X13	Y13	Z13	X14	Y14	Z14	X15	Y15	Z15	X16	Y16	Z16	X17	Y17	Z17	X18	Y18	Z18	X19	Y19	Z19	X20	Y20	Z20	X21	Y21	Z21	X22	Y22	Z22	X23	Y23	Z23	X24	Y24	Z24	X25	Y25	Z25	X26	Y26	Z26	X27	Y27	Z27	X28	Y28	Z28	X29	Y29	Z29	X30	Y30	Z30	X31	Y31	Z31	X32	Y32	Z32	X33	Y33	Z33	X34	Y34	Z34	X35	Y35	Z35	X36	Y36	Z36	X37	Y37	Z37	X38	Y38	Z38	X39	Y39	Z39	X40	Y40	Z40	X41	Y41	Z41	X42	Y42	Z42	X43	Y43	Z43	X44	Y44	Z44	X45	Y45	Z45	X46	Y46	Z46	X47	Y47	Z47	X48	Y48	Z48	

113	0.7466666666666667	708.3756713867188	107.029052734375	1038.181274414063	735.969970703125	119.325569152832	1122.2265625	884.242431640625	1063.11279296875	1113.773559570313	814.9872436523438	965.568359375	1050.820434570313	640.1040649414063	41.47465896606445	1080.998291015625	675.8958129882813	62.98005294799805	1035.84521484375	649.5707397460938	88.97274780273438	1082.279663085938	789.5638427734375	488.7869873046875	1025.663818359375	801.7437744140625	1138.32470703125	1070.236206054688	807.6565551757813	545.1905517578125	1035.381225585938	794.162353515625	528.3767700195313	1157.152954101563	864.9293212890625	57.83797836303711	1122.361206054688	868.8587036132813	68.20408630371094	1077.888549804688	828.7754516601563	50.18251037597656	1012.224487304688	709.3494873046875	1106.774780273438	1183.979736328125	731.766357421875	186.5756378173828	1029.120727539063	686.7261962890625	195.5459899902344	1051.621948242188	742.8157958984375	264.6851196289063	1010.986633300781	695.6971435546875	277.6889343261719	1032.959716796875	792.2290649414063	666.0823974609375	1028.171752929688	730.6250610351563	665.372314453125	1067.285522460938	785.5621337890625	776.0726928710938	1022.446228027344	729.6149291992188	774.5036010742188	1064.534545898438	844.2988891601563	457.812255859375	1071.48388671875	710.2430419921875	104.1529159545898	1418.495727539063	735.5042724609375	122.1289825439453	1332.330322265625	880.8450927734375	1067.897705078125	1352.824584960938	808.9889526367188	961.6829223632813	1414.595825195313	639.3931884765625	42.15490341186523	1371.141479492188	671.3616333007813	62.53582000732422	1416.5419921875	648.0621337890625	88.13217163085938	1370.640991210938	781.3474731445313	485.277099609375	1441.514892578125	810.0889282226563	1130.681396484375	1394.330688476563	799.446044921875	538.0335083007813	1432.772583007813	803.6516723632813	525.8876342773438	1311.66552734375	863.8521118164063	60.49809646606445	1332.90673828125	870.5975341796875	71.1829833984375	1379.305541992188	834.93505859375	50.5132942199707	1444.120971679688	710.7642211914063	1106.973388671875	1284.560791015625	725.8593139648438	179.1314392089844	1429.078979492188	678.9606323242188	186.1976470947266	1400.081665039063	725.5565185546875	258.5320129394531	1447.016845703125	679.9620971679688	264.5896606445313	1417.867919921875	803.7049560546875	647.3231201171875	1440.470092773438	738.7103271484375	647.6348266601563	1408.889038085938	802.9188232421875	757.9163818359375	1441.936401367188	740.5496826171875	757.5654296875	1412.677124023438	842.2261962890625	458.3153686523438	1392.080444335938	
114	0.7533333333333334	708.37841796875	107.0397720336914	1038.185668945313	735.9747314453125	119.3243637084961	1122.230834960938	884.2265014648438	1063.109497070313	1113.752319335938	814.9739990234375	965.5838012695313	1050.789306640625	640.1082153320313	41.46725463867188	1081.001953125	675.8853759765625	62.97783279418945	1035.848388671875	649.5662841796875	88.97759246826172	1082.284423828125	789.6034545898438	488.7821350097656	1025.639038085938	801.7310791015625	1138.318603515625	1070.208740234375	807.6998291015625	545.1822509765625	1035.3701171875	794.19970703125	528.3675537109375	1157.153564453125	864.9296264648438	57.84775543212891	1122.364013671875	868.8536376953125	68.21315765380859	1077.889038085938	828.7762451171875	50.192626953125	1012.219970703125	709.33984375	1106.766723632813	1183.959716796875	731.7771606445313	186.5827789306641	1029.105712890625	686.7412109375	195.5498962402344	1051.618286132813	742.83935546875	264.6798095703125	1010.979736328125	695.7277221679688	277.706298828125	1032.957641601563	792.2750244140625	666.0690307617188	1028.157836914063	730.6648559570313	665.3609619140625	1067.2607421875	785.595703125	776.0692749023438	1022.426330566406	729.6455078125	774.484375	1064.509765625	844.3325805664063	457.7911682128906	1071.466674804688	710.2393188476563	104.1489562988281	1418.4931640625	735.5010986328125	122.1361618041992	1332.299682617188	880.8228149414063	1067.892822265625	1352.823364257813	808.97802734375	961.6788330078125	1414.57470703125	639.387939453125	42.15262603759766	1371.140747070313	671.3551635742188	62.53973007202148	1416.536499023438	648.0584716796875	88.14415740966797	1370.643310546875	781.3577270507813	485.2682800292969	1441.5029296875	810.0623779296875	1130.665893554688	1394.319946289063	799.4439697265625	538.0324096679688	1432.771728515625	803.6611938476563	525.893310546875	1311.64990234375	863.8455200195313	60.50946426391602	1332.898071289063	870.5985717773438	71.17875671386719	1379.310424804688	834.93798828125	50.5135383605957	1444.112060546875	710.7579956054688	1106.955322265625	1284.541137695313	725.8529052734375	179.1389312744141	1429.079711914063	678.9696044921875	186.1883239746094	1400.076171875	725.564697265625	258.5303649902344	1447.0185546875	679.973388671875	264.5885620117188	1417.868041992188	803.7127685546875	647.3197021484375	1440.460571289063	738.7127685546875	647.6344604492188	1408.86962890625	802.9202270507813	757.9190063476563	1441.914672851563	740.5607299804688	757.5633544921875	1412.663330078125	842.2216796875	458.3120422363281	1392.06201171875	
115	0.76	708.3751831054688	107.0307006835938	1038.18896484375	735.9697875976563	119.3283996582031	1122.227294921875	884.2141723632813	1063.118896484375	1113.729125976563	814.9877319335938	965.5589599609375	1050.785522460938	640.1068115234375	41.47250747680664	1081.002075195313	675.8945922851563	62.98213195800781	1035.851928710938	649.5692138671875	88.97422790527344	1082.277465820313	789.64453125	488.7763366699219	1025.626342773438	801.7027587890625	1138.320068359375	1070.186645507813	807.7548828125	545.1802368164063	1035.362182617188	794.2545166015625	528.3629760742188	1157.153564453125	864.9271240234375	57.84410858154297	1122.36083984375	868.8491821289063	68.21246337890625	1077.88232421875	828.7792358398438	50.19136047363281	1012.228454589844	709.3253173828125	1106.74072265625	1183.9443359375	731.784912109375	186.5813446044922	1029.107543945313	686.7591552734375	195.5563201904297	1051.609741210938	742.8742065429688	264.6795959472656	1010.97509765625	695.7608032226563	277.7082214355469	1032.939819335938	792.3042602539063	666.0445556640625	1028.150390625	730.7073364257813	665.3380126953125	1067.254760742188	785.62060546875	776.0568237304688	1022.40380859375	729.674560546875	774.469970703125	1064.492309570313	844.3743286132813	457.788818359375	1071.470947265625	710.2392578125	104.1518096923828	1418.49658203125	735.509765625	122.1081466674805	1332.34033203125	880.81787109375	1067.889404296875	1352.809204101563	808.9640502929688	961.6773681640625	1414.553344726563	639.3870849609375	42.16429901123047	1371.14404296875	671.359619140625	62.5352668762207	1416.555541992188	648.057373046875	88.14155578613281	1370.646606445313	781.3685913085938	485.2687377929688	1441.4990234375	810.0372314453125	1130.654052734375	1394.313720703125	799.4581298828125	538.0343017578125	1432.77001953125	803.6618041992188	525.9096069335938	1311.634033203125	863.8377685546875	60.50205612182617	1332.906494140625	870.6099243164063	71.17377471923828	1379.317749023438	834.9315185546875	50.5113639831543	1444.124633789063	710.7440795898438	1106.937133789063	1284.502685546875	725.86181640625	179.1283569335938	1429.071655273438	678.9727172851563	186.1959381103516	1400.07763671875	725.5715942382813	258.52587890625	1447.017211914063	679.9678955078125	264.5933532714844	1417.870727539063	803.7119750976563	647.3273315429688	1440.461181640625	738.7154541015625	647.6340942382813	1408.865112304688	802.9166870117188	757.918701171875	1441.9013671875	740.5511474609375	757.5584716796875	1412.639038085938	842.2276000976563	458.3266906738281	1392.068237304688	
116	0.7666666666666667	708.3856811523438	107.0359039306641	1038.178955078125	735.9715576171875	119.3289260864258	1122.233032226563	884.205810546875	1063.105590820313	1113.720825195313	814.9777221679688	965.56103515625	1050.7333984375	640.1016235351563	41.46639251708984	1080.989624023438	675.8927001953125	62.97795867919922	1035.846801757813	649.5704956054688	88.97763061523438	1082.275512695313	789.7146606445313	488.7682495117188	1025.616455078125	801.6753540039063	1138.304443359375	1070.16943359375	807.7943115234375	545.1661376953125	1035.357788085938	794.2987060546875	528.362548828125	1157.144775390625	864.916015625	57.83767318725586	1122.361694335938	868.857666015625	68.21170043945313	1077.878051757813	828.774658203125	50.19281387329102	1012.216064453125	709.306396484375	1106.732177734375	1183.921997070313	731.8094482421875	186.5742797851563	1029.09619140625	686.7656860351563	195.5592651367188	1051.608764648438	742.8787841796875	264.670654296875	1010.972839355469	695.7824096679688	277.7110290527344	1032.937866210938	792.3716430664063	666.040283203125	1028.143188476563	730.7489624023438	665.3170776367188	1067.244873046875	785.6570434570313	776.0497436523438	1022.392944335938	729.6967163085938	774.4490356445313	1064.468383789063	844.6775512695313	457.5556335449219	1071.305541992188	710.2380981445313	104.1510772705078	1418.505004882813	735.49072265625	122.1264419555664	1332.308471679688	880.8013305664063	1067.885864257813	1352.800903320313	808.9622192382813	961.6697998046875	1414.533203125	639.38818359375	42.16511154174805	1371.138916015625	671.3584594726563	62.53602981567383	1416.54150390625	648.048583984375	88.14967346191406	1370.653686523438	781.3688354492188	485.2744750976563	1441.496459960938	810.003173828125	1130.632202148438	1394.296264648438	799.4541625976563	538.0274658203125	1432.765869140625	803.6735229492188	525.8948974609375	1311.635131835938	863.8336791992188	60.5035285949707	1332.900390625	870.5947875976563	71.17912292480469	1379.316772460938	834.9309692382813	50.51284027099609	1444.12744140625	710.722412109375	1106.9228515625	1284.474853515625	725.8595581054688	179.1356506347656	1429.073852539063	678.968505859375	186.1966552734375	1400.07421875	725.572998046875	258.5329284667969	1447.00537109375	679.9747314453125	264.5864562988281	1417.871337890625	803.7132568359375	647.3216552734375	1440.432861328125	738.7188110351563	647.6258544921875	1408.855224609375	802.9091796875	757.92333984375	1441.885498046875	740.5474853515625	757.5578002929688	1412.634399414063	842.2288208007813	458.3268127441406	1392.066284179688	
